<?xml version="1.0" ?><!DOCTYPE svg  PUBLIC '-//W3C//DTD SVG 1.1//EN'  'http://www.w3.org/Graphics/SVG/1.1/DTD/svg11.dtd'><svg enable-background="new 0 0 150 150" height="150px" id="Layer_1" version="1.1" viewBox="0 0 150 150" width="150px" xml:space="preserve" xmlns="http://www.w3.org/2000/svg" xmlns:xlink="http://www.w3.org/1999/xlink"><g><circle cx="74.968" cy="75.042" fill="#8B2A90" opacity="0.1" r="75"/><path d="M74.968,0.042v150c41.42,0,74.998-33.579,74.998-75.001   C149.966,33.62,116.388,0.042,74.968,0.042z" fill="#8B2A90" opacity="0.1"/><circle cx="74.968" cy="75.042" fill="#8B2A90" r="65.488"/><path d="M74.968,9.554v130.976c36.166,0,65.486-29.319,65.486-65.488C140.454,38.874,111.134,9.554,74.968,9.554z" fill="#7D2281"/><g><path d="M9.552,72.114c-0.041,0.971-0.072,1.945-0.072,2.927c0,36.169,29.318,65.488,65.488,65.488v-5.853    C39.78,134.677,11.085,106.924,9.552,72.114z" fill="#7D2281"/><path d="M140.382,72.114c-1.533,34.81-30.229,62.562-65.414,62.562v5.853c36.166,0,65.486-29.319,65.486-65.488    C140.454,74.06,140.425,73.085,140.382,72.114z" fill="#701974"/></g></g><path clip-rule="evenodd" d="M120.407,57.014l-11.1,2.364  c-1.654,0.468-6.143,3.776-13.938,10.157c-8.268,6.614-12.52,10.864-13.227,12.992l-0.709,9.45l0.945,8.972l14.645,0.236  l-0.236,4.487H72.931l-21.26,0.238l0.709-4.255l6.848-0.233c3.545-0.237,5.674-0.708,6.381-1.423  c0.471-0.466,0.707-3.301,0.707-8.264V88.67l-0.236-6.143c-0.471-1.417-4.252-6.613-11.572-15.592  c-7.559-9.212-12.52-14.648-14.885-16.54l-13.699-1.888v-4.019c0.711-0.466,8.27-0.466,22.207-0.231  c9.682-0.234,17.715-0.234,24.094,0.231L71.749,47.8l-14.408,1.421c4.486,6.614,11.338,15.823,20.551,27.398  C89.938,67.406,96.315,61.5,96.55,58.904l-12.279-1.891l-0.947-4.251h20.553l19.365,0.235L120.407,57.014L120.407,57.014z" fill="#FFFFFF" fill-rule="evenodd"/></svg>